<?xml version="1.0" encoding="UTF-8" standalone="no"?>
<svg
   width="340"
   height="340"
   viewBox="0 0 340 340"
   fill="none"
   version="1.1"
   id="svg96"
   sodipodi:docname="source.svg"
   inkscape:version="1.4.2 (ebf0e940, 2025-05-08)"
   inkscape:export-filename="paxton-text-in-circle.png"
   inkscape:export-xdpi="96"
   inkscape:export-ydpi="96"
   xml:space="preserve"
   xmlns:inkscape="http://www.inkscape.org/namespaces/inkscape"
   xmlns:sodipodi="http://sodipodi.sourceforge.net/DTD/sodipodi-0.dtd"
   xmlns="http://www.w3.org/2000/svg"
   xmlns:svg="http://www.w3.org/2000/svg"><sodipodi:namedview
     id="namedview96"
     pagecolor="#ffffff"
     bordercolor="#000000"
     borderopacity="0.25"
     inkscape:showpageshadow="2"
     inkscape:pageopacity="0.0"
     inkscape:pagecheckerboard="0"
     inkscape:deskcolor="#d1d1d1"
     inkscape:zoom="2.6605584"
     inkscape:cx="136.43752"
     inkscape:cy="132.67891"
     inkscape:window-width="2560"
     inkscape:window-height="1353"
     inkscape:window-x="0"
     inkscape:window-y="31"
     inkscape:window-maximized="0"
     inkscape:current-layer="g91"
     showguides="true"><sodipodi:guide
       position="286.50418,460.32858"
       orientation="1,0"
       id="guide1"
       inkscape:locked="false" /></sodipodi:namedview><mask
     id="path-1-outside-1_1_2"
     maskUnits="userSpaceOnUse"
     x="136"
     y="31"
     width="388"
     height="346"
     fill="#000000"><rect
       fill="#ffffff"
       x="136"
       y="31"
       width="388"
       height="346"
       id="rect2" /><path
       fill-rule="evenodd"
       clip-rule="evenodd"
       d="m 416.136,206.744 c 0.39,-5.698 0.424,-11.339 0.12,-16.899 l 9.604,-4.212 1.248,-0.93 c 0.007,-0.071 0.007,-0.134 0.009,-0.2 10e-4,-0.013 0.002,-0.026 0.002,-0.039 10e-4,-0.01 0.002,-0.019 0.003,-0.029 1.662,-17.824 2.136,-36.465 2.008,-53.609 2.673,-0.782 5.94,-1.828 9.397,-3.146 -0.09,-0.01 -0.18,-0.023 -0.27,-0.04 4.848,-1.737 11.392,-4.095 16.098,-6.677 3.975,0.615 7.057,-0.265 7.552,-0.422 l -0.035,-0.172 c 6.782,-1.329 16.736,-5.954 28.078,-18.018 l 0.442,-0.491 c 1.367,-1.229 1.51,-3.6933 1.58,-5.7387 0.654,-0.0333 1.332,-0.0813 2.035,-0.156 14.183,-1.5146 20.701,-10.72 21.912,-16.1333 -10e-4,-0.008 0.002,-0.0196 0.006,-0.0307 0.002,-0.0091 0.005,-0.0179 0.005,-0.024 0.192,-0.6773 -2.235,-3.8253 -2.736,-4.2146 -1.402,-1.064 -10.076,-2.0574 -14.731,-2.504 1.353,-6.2542 7.882,-9.7037 10.956,-11.3279 0.594,-0.3138 1.06,-0.5595 1.333,-0.7441 0.336,-0.2307 0.6,-0.564 0.807,-0.9614 0.971,-1.932 0.52,-5.3267 0.52,-5.3267 -0.536,-0.1179 -1.342,-0.3314 -2.349,-0.5981 v -10e-5 c -4.096,-1.0849 -11.515,-3.05 -17.579,-3.0457 -2.149,0.0146 -4.125,0.2613 -5.724,0.8759 -11.192,4.3064 -16.282,18.3896 -17.045,21.0301 -0.39,-0.1092 0.014,-0.2287 0.014,-0.2287 -2.065,0.3307 -2.402,0.712 -2.402,0.712 -4.291,3.7839 -8.422,7.3429 -12.165,10.568 -10.056,8.6631 -17.315,14.9173 -17.363,16.651 l -0.014,0.001 c -0.013,0.013 -0.012,0.04 0.003,0.053 0.005,0.199 0.013,0.404 0.023,0.613 -2.575,1.889 -6.036,4.159 -8.307,5.277 l 0.017,0.038 c -0.104,0.276 -0.205,0.597 -0.302,0.957 -0.093,0.049 -0.185,0.098 -0.278,0.146 C 427.66,82.2204 425.8,63.9893 425.8,63.9893 l -2.3,-1.1266 C 402.239,51.5427 353.563,41.816 318.52,40 l -1.084,0.736 -23.969,16.344 c -2.315,-1.1653 -4.379,-1.8507 -5.363,-2.0413 -11.316,-2.0708 -21.831,0.7125 -29.248,7.8392 -61.349,9.6884 -110.113,60.6741 -114.533,125.2691 -2.871,41.962 13.58,80.784 41.761,107.759 L 187,297 l 17.549,36.104 27.076,19.124 -3.206,5.264 22.525,-1.289 c -3.289,5.074 -6.64,10.112 -10.065,15.106 3.848,-5.006 7.622,-10.069 11.334,-15.179 l 2.342,-0.134 c 4.453,-6.375 7.74,-12.204 10.121,-17.498 1.225,-1.779 2.445,-3.562 3.659,-5.348 0.863,0.075 1.728,0.142 2.596,0.202 9.424,0.644 18.69,0.315 27.698,-0.904 -3.52,6.395 -7.137,12.752 -10.755,19.108 -1.241,2.179 -2.481,4.359 -3.718,6.54 6.008,-8.607 11.904,-17.317 17.665,-26.118 4.948,-0.79 9.813,-1.848 14.579,-3.16 -1.662,2.919 -3.33,5.835 -5.002,8.749 1.997,-2.998 3.984,-6.005 5.962,-9.017 53.768,-15.231 94.742,-62.85 98.776,-121.806 z m 53.533,-133.5067 0.068,-0.0843 1.494,-0.581 c -0.008,0.0294 -0.994,0.4343 -1.562,0.6653 z"
       id="path2" /></mask><defs
     id="defs96"><linearGradient
       id="paint0_linear_1_2"
       x1="339.66299"
       y1="72.388"
       x2="374.37399"
       y2="76.595901"
       gradientUnits="userSpaceOnUse"><stop
         stop-color="#E88A0F"
         id="stop93" /><stop
         offset="1"
         stop-color="#FCD006"
         id="stop94" /></linearGradient><linearGradient
       id="paint1_linear_1_2"
       x1="384.91599"
       y1="83.736"
       x2="419.70401"
       y2="86.797699"
       gradientUnits="userSpaceOnUse"><stop
         stop-color="#E88A0F"
         id="stop95" /><stop
         offset="1"
         stop-color="#FCD006"
         id="stop96" /></linearGradient><clipPath
       id="clip0_1_2"><rect
         width="371.94"
         height="293.67499"
         fill="#ffffff"
         transform="translate(144,40)"
         id="rect96"
         x="0"
         y="0" /></clipPath><clipPath
       id="clip0_1_2-4"><rect
         width="371.94"
         height="293.67499"
         fill="#ffffff"
         transform="translate(144,40)"
         id="rect96-0"
         x="0"
         y="0" /></clipPath><mask
       id="mask0_1_2-4"
       maskUnits="userSpaceOnUse"
       x="144"
       y="61"
       width="273"
       height="273"><path
         d="M 416.136,206.744 C 411,281.803 345.99,338.487 270.931,333.352 195.872,328.216 139.188,263.205 144.323,188.147 149.459,113.088 214.47,56.4039 289.528,61.5385 c 75.059,5.136 131.743,70.1465 126.608,145.2055 z"
         fill="#ffffff"
         id="path6-3" /></mask><mask
       id="mask1_1_2-1"
       maskUnits="userSpaceOnUse"
       x="341"
       y="50"
       width="34"
       height="49"><path
         d="m 361.656,51.9053 c -7.436,-3.0973 -15.392,0.0027 -20.366,7.068 4.765,-4.936 11.326,-6.828 17.525,-4.2546 9.571,3.9746 14.631,17.0346 11.293,29.18 -1.932,7.0213 -6.244,12.1946 -11.386,14.5413 6.546,-1.6387 12.285,-7.572 14.637,-16.1467 3.465,-12.6493 -1.779,-26.2506 -11.703,-30.388 z"
         fill="#ffffff"
         id="path74-7" /></mask><linearGradient
       id="paint0_linear_1_2-9"
       x1="339.66299"
       y1="72.388"
       x2="374.37399"
       y2="76.595901"
       gradientUnits="userSpaceOnUse"><stop
         stop-color="#E88A0F"
         id="stop93-4" /><stop
         offset="1"
         stop-color="#FCD006"
         id="stop94-7" /></linearGradient><mask
       id="mask2_1_2-0"
       maskUnits="userSpaceOnUse"
       x="386"
       y="61"
       width="34"
       height="49"><path
         d="m 406.21,62.556 c -7.524,-2.8453 -15.371,0.5173 -20.111,7.7387 4.6,-5.088 11.092,-7.1974 17.364,-4.8347 9.685,3.648 15.16,16.5213 12.217,28.7627 -1.704,7.0763 -5.842,12.3883 -10.902,14.9023 6.484,-1.856 12.025,-7.974 14.097,-16.6143 3.053,-12.7494 -2.621,-26.156 -12.665,-29.9547 z"
         fill="#ffffff"
         id="path76-1" /></mask><linearGradient
       id="paint1_linear_1_2-1"
       x1="384.91599"
       y1="83.736"
       x2="419.70401"
       y2="86.797699"
       gradientUnits="userSpaceOnUse"><stop
         stop-color="#E88A0F"
         id="stop95-5" /><stop
         offset="1"
         stop-color="#FCD006"
         id="stop96-2" /></linearGradient><clipPath
       id="clip0_1_2-8"><rect
         width="371.94"
         height="293.67499"
         fill="#ffffff"
         transform="translate(144,40)"
         id="rect96-2"
         x="0"
         y="0" /></clipPath><mask
       id="mask0_1_2-48"
       maskUnits="userSpaceOnUse"
       x="144"
       y="61"
       width="273"
       height="273"><path
         d="M 416.136,206.744 C 411,281.803 345.99,338.487 270.931,333.352 195.872,328.216 139.188,263.205 144.323,188.147 149.459,113.088 214.47,56.4039 289.528,61.5385 c 75.059,5.136 131.743,70.1465 126.608,145.2055 z"
         fill="#ffffff"
         id="path6-35" /></mask><mask
       id="mask1_1_2-0"
       maskUnits="userSpaceOnUse"
       x="341"
       y="50"
       width="34"
       height="49"><path
         d="m 361.656,51.9053 c -7.436,-3.0973 -15.392,0.0027 -20.366,7.068 4.765,-4.936 11.326,-6.828 17.525,-4.2546 9.571,3.9746 14.631,17.0346 11.293,29.18 -1.932,7.0213 -6.244,12.1946 -11.386,14.5413 6.546,-1.6387 12.285,-7.572 14.637,-16.1467 3.465,-12.6493 -1.779,-26.2506 -11.703,-30.388 z"
         fill="#ffffff"
         id="path74-0" /></mask><linearGradient
       id="paint0_linear_1_2-6"
       x1="339.66299"
       y1="72.388"
       x2="374.37399"
       y2="76.595901"
       gradientUnits="userSpaceOnUse"><stop
         stop-color="#E88A0F"
         id="stop93-7" /><stop
         offset="1"
         stop-color="#FCD006"
         id="stop94-0" /></linearGradient><mask
       id="mask2_1_2-7"
       maskUnits="userSpaceOnUse"
       x="386"
       y="61"
       width="34"
       height="49"><path
         d="m 406.21,62.556 c -7.524,-2.8453 -15.371,0.5173 -20.111,7.7387 4.6,-5.088 11.092,-7.1974 17.364,-4.8347 9.685,3.648 15.16,16.5213 12.217,28.7627 -1.704,7.0763 -5.842,12.3883 -10.902,14.9023 6.484,-1.856 12.025,-7.974 14.097,-16.6143 3.053,-12.7494 -2.621,-26.156 -12.665,-29.9547 z"
         fill="#ffffff"
         id="path76-3" /></mask><linearGradient
       id="paint1_linear_1_2-3"
       x1="384.91599"
       y1="83.736"
       x2="419.70401"
       y2="86.797699"
       gradientUnits="userSpaceOnUse"><stop
         stop-color="#E88A0F"
         id="stop95-2" /><stop
         offset="1"
         stop-color="#FCD006"
         id="stop96-1" /></linearGradient><mask
       maskUnits="userSpaceOnUse"
       id="mask175"><g
         id="g176"><path
           d="m 406.21,62.556 c -7.524,-2.8453 -15.371,0.5173 -20.111,7.7387 4.6,-5.088 11.092,-7.1974 17.364,-4.8347 9.685,3.648 15.16,16.5213 12.217,28.7627 -1.704,7.0763 -5.842,12.3883 -10.902,14.9023 6.484,-1.856 12.025,-7.974 14.097,-16.6143 3.053,-12.7494 -2.621,-26.156 -12.665,-29.9547 z"
           fill="#ffffff"
           id="path176" /></g></mask><mask
       maskUnits="userSpaceOnUse"
       id="mask177"><g
         id="g178"><path
           d="m 361.656,51.9053 c -7.436,-3.0973 -15.392,0.0027 -20.366,7.068 4.765,-4.936 11.326,-6.828 17.525,-4.2546 9.571,3.9746 14.631,17.0346 11.293,29.18 -1.932,7.0213 -6.244,12.1946 -11.386,14.5413 6.546,-1.6387 12.285,-7.572 14.637,-16.1467 3.465,-12.6493 -1.779,-26.2506 -11.703,-30.388 z"
           fill="#ffffff"
           id="path178" /></g></mask><mask
       maskUnits="userSpaceOnUse"
       id="mask340"><g
         id="g341"
         transform="translate(-0.1699289)"><path
           d="m 416.30593,206.744 c -5.136,75.059 -70.146,131.743 -145.205,126.608 -75.059,-5.136 -131.743,-70.147 -126.608,-145.205 5.136,-75.059 70.147,-131.7431 145.205,-126.6085 75.059,5.136 131.743,70.1465 126.608,145.2055 z"
           fill="#ffffff"
           id="path341" /></g></mask><mask
       maskUnits="userSpaceOnUse"
       id="mask341"><g
         id="g342"
         transform="translate(-0.1699289)"><path
           d="m 416.30593,206.744 c -5.136,75.059 -70.146,131.743 -145.205,126.608 -75.059,-5.136 -131.743,-70.147 -126.608,-145.205 5.136,-75.059 70.147,-131.7431 145.205,-126.6085 75.059,5.136 131.743,70.1465 126.608,145.2055 z"
           fill="#ffffff"
           id="path342" /></g></mask><mask
       maskUnits="userSpaceOnUse"
       id="mask342"><g
         id="g343"
         transform="translate(-0.1699289)"><path
           d="m 416.30593,206.744 c -5.136,75.059 -70.146,131.743 -145.205,126.608 -75.059,-5.136 -131.743,-70.147 -126.608,-145.205 5.136,-75.059 70.147,-131.7431 145.205,-126.6085 75.059,5.136 131.743,70.1465 126.608,145.2055 z"
           fill="#ffffff"
           id="path343" /></g></mask><mask
       maskUnits="userSpaceOnUse"
       id="mask343"><g
         id="g344"
         transform="translate(-0.1699289)"><path
           d="m 416.30593,206.744 c -5.136,75.059 -70.146,131.743 -145.205,126.608 -75.059,-5.136 -131.743,-70.147 -126.608,-145.205 5.136,-75.059 70.147,-131.7431 145.205,-126.6085 75.059,5.136 131.743,70.1465 126.608,145.2055 z"
           fill="#ffffff"
           id="path344" /></g></mask><mask
       maskUnits="userSpaceOnUse"
       id="mask344"><g
         id="g345"
         transform="translate(-0.1699289)"><path
           d="m 416.30593,206.744 c -5.136,75.059 -70.146,131.743 -145.205,126.608 -75.059,-5.136 -131.743,-70.147 -126.608,-145.205 5.136,-75.059 70.147,-131.7431 145.205,-126.6085 75.059,5.136 131.743,70.1465 126.608,145.2055 z"
           fill="#ffffff"
           id="path345" /></g></mask></defs><g
     clip-path="url(#clip0_1_2)"
     id="g91"
     transform="translate(-156.98675,-32.999582)"
     style="display:inline;stroke:none;stroke-width:5.104;stroke-dasharray:none;stroke-opacity:1;paint-order:fill markers stroke"
     inkscape:label="g91"><mask
       id="mask0_1_2"
       maskUnits="userSpaceOnUse"
       x="144"
       y="61"
       width="273"
       height="273"><path
         d="M 416.136,206.744 C 411,281.803 345.99,338.487 270.931,333.352 195.872,328.216 139.188,263.205 144.323,188.147 149.459,113.088 214.47,56.4039 289.528,61.5385 c 75.059,5.136 131.743,70.1465 126.608,145.2055 z"
         fill="#ffffff"
         id="path6" /></mask><path
       d="m 418.563,143.717 c 4.469,7.334 10.289,9.83 15.239,10.408 -4.987,3.066 -12.996,5.883 -18.403,7.823 -2.907,-0.291 -5.475,-0.856 -7.897,-6.109 -2.199,-4.72 -1.378,-12.368 -0.314,-15.194 l -0.017,-0.038 c 3.231,-1.59 8.869,-5.512 10.939,-7.351 l -1.764,1.911 c 0.066,2.444 0.445,5.63 2.217,8.55 z"
       fill="#aab0c2"
       id="path12"
       style="stroke:none;stroke-width:5.104;stroke-dasharray:none;stroke-opacity:1;paint-order:fill markers stroke" /><path
       d="m 476.463,107.0587 c 4.655,0.4466 13.329,1.44 14.731,2.504 0.501,0.3893 2.928,3.5373 2.736,4.2146 0,0.0134 -0.012,0.04 -0.011,0.0547 l -16.089,-1.888 c -0.011,0.0533 -0.035,0.108 -0.046,0.1493 l -3.88,-4.9453 c 0.062,-0.1093 0.136,-0.2067 0.226,-0.292 0.509,0.0413 1.328,0.1067 2.333,0.2027 z"
       fill="#aab0c2"
       id="path13"
       style="stroke:none;stroke-width:5.104;stroke-dasharray:none;stroke-opacity:1;paint-order:fill markers stroke" /><path
       d="m 477.784,112.0933 c 0.011,-0.0413 0.035,-0.096 0.046,-0.1493 l 16.089,1.888 c -1.211,5.4133 -7.729,14.6187 -21.912,16.1333 -0.703,0.0747 -1.381,0.1227 -2.035,0.156 -1.292,0.0507 -2.494,0.0174 -3.608,-0.0733 -8.154,-0.764 -11.541,-5.2 -11.541,-5.2 -0.283,-0.292 -0.552,-0.6 -0.807,-0.8933 l 0.092,-0.0454 c 0,0 5.936,6.564 16.643,-2.4786 3.957,-3.3494 5.763,-4.868 7.033,-9.3374 z"
       fill="#080604"
       id="path14"
       style="stroke:none;stroke-width:5.104;stroke-dasharray:none;stroke-opacity:1;paint-order:fill markers stroke" /><path
       d="m 490.079,88.6986 c 0,0 0.451,3.3947 -0.52,5.3267 -1.765,-0.3253 -9.339,-1.72 -18.843,-3.2853 -0.224,0.0386 -0.449,0.0893 -0.673,0.1413 l 0.108,-5.8266 c 7.556,-0.0054 17.215,3.0466 19.928,3.6439 z"
       fill="#aab0c2"
       id="path15"
       style="stroke:none;stroke-width:5.104;stroke-dasharray:none;stroke-opacity:1;paint-order:fill markers stroke" /><path
       d="m 473.904,107.148 c -0.95,1.5427 -0.649,5.412 -8.182,9.8493 -7.002,4.1307 -9.423,-1.8226 -9.947,-3.4773 l -0.092,0.0307 c 0,0 -2.667,-4.9787 0.627,-11.1654 2.049,-3.8546 6.026,-9.728 13.733,-11.504 0.224,-0.052 0.449,-0.1026 0.673,-0.1413 9.504,1.5653 17.078,2.96 18.843,3.2853 -0.207,0.3974 -0.471,0.7307 -0.807,0.9614 -1.69,1.14 -10.674,4.6093 -12.289,12.072 -1.005,-0.096 -1.824,-0.1614 -2.333,-0.2027 -0.09,0.0853 -0.164,0.1827 -0.226,0.292 z"
       fill="#080604"
       id="path16"
       style="stroke:none;stroke-width:5.104;stroke-dasharray:none;stroke-opacity:1;paint-order:fill markers stroke" /><path
       d="m 439.872,154.369 0.035,0.172 c -0.551,0.175 -4.303,1.244 -8.923,0.155 -4.39,-1.021 -9.558,-3.979 -13.541,-11.495 -1.579,-2.99 -1.923,-6.112 -1.988,-8.484 -0.015,-0.013 -0.016,-0.04 -0.003,-0.053 l 0.014,-10e-4 c 0.066,-2.379 13.712,-13.271 29.528,-27.219 0,0 0.337,-0.3813 2.402,-0.712 0,0 -0.626,0.1853 0.434,0.3053 l -0.524,0.6534 c -0.012,0.0413 0.38,-0.1347 0.38,-0.1347 0,0 1.577,0.2747 1.592,2.4493 -6.132,1.7507 -5.891,11.2254 -2.355,16.7747 4.392,6.9093 10.136,8.569 14.607,8.799 1.258,0.069 4.701,-0.491 4.778,-5.0603 l 0.056,-0.4707 c 1.114,0.0907 2.316,0.124 3.608,0.0733 -0.07,2.0454 -0.213,4.5097 -1.58,5.7387 l -0.442,0.491 c -11.342,12.064 -21.296,16.689 -28.078,18.018 z"
       fill="#778292"
       id="path17"
       style="stroke:none;stroke-width:5.104;stroke-dasharray:none;stroke-opacity:1;paint-order:fill markers stroke" /><path
       d="m 466.364,130.048 -0.056,0.4707 c -0.077,4.5693 -3.52,5.1293 -4.778,5.0603 -4.471,-0.23 -10.215,-1.8897 -14.607,-8.799 -3.536,-5.5493 -4.137,-14.8373 1.996,-16.5867 0.025,3.4294 0.871,8.8067 5.097,13.7614 0.255,0.2933 0.524,0.6013 0.807,0.8933 0,0 3.387,4.436 11.541,5.2 z"
       fill="#080604"
       id="path18"
       style="stroke:none;stroke-width:5.104;stroke-dasharray:none;stroke-opacity:1;paint-order:fill markers stroke" /><path
       d="m 416.527,161.68 c -6.899,2.629 -13.043,4.18 -15.207,4.701 -0.244,-7.802 -0.593,-15.033 -1.018,-21.63 l 0.041,-0.006 c 0,0 3.229,-1.381 6.797,-3.277 l 0.015,0.037 c -0.941,2.71 -0.448,7.231 1.533,11.77 2.184,5.049 5.239,8.117 7.839,8.405 z"
       fill="#aab0c2"
       id="path19"
       style="stroke:none;stroke-width:5.104;stroke-dasharray:none;stroke-opacity:1;paint-order:fill markers stroke" /><path
       d="m 449.231,106.572 -1.944,0.756 c 0.212,-1.1053 5.209,-16.8067 17.14,-21.3974 1.599,-0.6146 3.575,-0.8613 5.724,-0.8759 l -0.108,5.8266 c -7.707,1.776 -11.684,7.6494 -13.733,11.504 -3.294,6.1867 -0.627,11.1654 -0.627,11.1654 l 0.092,-0.0307 c 0.524,1.6547 2.945,7.608 9.947,3.4773 7.533,-4.4373 7.232,-8.3066 8.182,-9.8493 l 3.88,4.9453 c -1.27,4.4694 -3.076,5.988 -7.033,9.3374 -10.707,9.0426 -16.643,2.4786 -16.643,2.4786 l -0.092,0.0454 c -4.226,-4.9547 -7.014,-9.564 -7.04,-12.9934 -0.016,-2.1746 0.302,-3.5653 0.302,-3.5653 0,0 1.942,-0.7827 1.953,-0.824 z"
       fill="#778292"
       id="path20"
       style="stroke:none;stroke-width:5.104;stroke-dasharray:none;stroke-opacity:1;paint-order:fill markers stroke" /><path
       d="m 422.294,159.224 c -6.183,3.264 -11.931,-8.036 -12.38,-12.82 -0.315,-2.193 -0.36,-4.62 0.68,-6.767 -0.264,2.244 0.208,4.316 0.756,6.33 1.32,4.134 5.392,14.436 10.944,13.257 z"
       fill="#778292"
       id="path21"
       style="stroke:none;stroke-width:5.104;stroke-dasharray:none;stroke-opacity:1;paint-order:fill markers stroke" /><path
       d="m 429.276,139.776 c 0.832,2.388 0.302,4.743 -1.184,5.26 -1.486,0.517 -3.365,-0.999 -4.196,-3.387 -0.832,-2.388 -0.301,-4.744 1.184,-5.26 1.487,-0.517 3.366,0.999 4.196,3.387 z"
       fill="#566576"
       id="path22"
       style="stroke:none;stroke-width:5.104;stroke-dasharray:none;stroke-opacity:1;paint-order:fill markers stroke" /><path
       d="m 404.59045,218.70077 c -17.506,-1.924 -88.303,-8.603 -88.303,-8.603 0,0 -13.057,-1.332 -18.268,-1.417 l -1.433,0.698 -0.134,-0.273 c 2.423,-69.729 -1.52,-134.065296 -1.52,-134.065296 l -0.028,-0.0387 1.084,-0.736 c 35.043,1.816 83.719,11.5427 104.98,22.8627 l 2.3,1.1266 c 0,0 6.559,64.277696 1.322,120.445696 z"
       fill="#fab10b"
       id="path23"
       style="stroke:none;stroke-width:5.104;stroke-dasharray:none;stroke-opacity:1;paint-order:fill markers stroke" /><path
       d="m 316.819,209.832 -6.66,2.697 c -4.105,-0.14 -11.843,-0.298 -14.969,-0.341 l 1.928,-3.075 1.433,-0.698 c 5.211,0.085 18.268,1.417 18.268,1.417 z"
       fill="#c59d1a"
       id="path24"
       style="stroke:none;stroke-width:5.104;stroke-dasharray:none;stroke-opacity:1;paint-order:fill markers stroke" /><path
       d="m 232.002,117.2147 39.465,-26.1347 23.969,-16.344 0.028,0.0387 c 0,0 3.943,64.3363 1.52,134.0653 l 0.134,0.273 c 0,0 0.588,-0.18 -0.303,1.507 l -69.566,34.328 c 0.053,-3.637 4.855,-125.7093 4.753,-127.7333 z"
       fill="#fcd006"
       id="path25"
       style="stroke:none;stroke-width:5.104;stroke-dasharray:none;stroke-opacity:1;paint-order:fill markers stroke" /><path
       d="m 355.252,212.465 -56.985,-3.788 c 0.012,-0.024 0.033,-0.053 0.045,-0.076 l -0.137,0.071 -0.545,-0.036 c -0.002,0.087 0.038,0.176 0.098,0.265 l -69.495,35.482 c 4.964,0.218 16.242,1.313 26.315,3.049 12.307,2.12 55.976,6.759 66.291,8.19 l -0.855,0.875 1.586,-0.78 c 0.026,0.003 0.061,0.008 0.088,0.011 l -0.078,-0.016 82.28,-36.079 1.248,-0.93 c 0.01,-0.095 0.006,-0.175 0.014,-0.268 -17.506,-1.924 -31.095,-4.843 -49.87,-5.97 z"
       fill="#95461d"
       id="path26"
       style="stroke:none;stroke-width:5.104;stroke-dasharray:none;stroke-opacity:1;paint-order:fill markers stroke" /><path
       d="m 271.467,91.08 -36.401,24.804 c 0.101,2.024 -0.361,5.572 -0.285,7.624 l 0.085,0.0907 c -3.721,3.2573 -5.496,9.648 -5.18,16.9883 -1.673,0.71 -3.423,1.493 -5.249,2.345 -0.743,0.359 -1.486,0.716 -2.255,1.088 l 5.411,-30.7093 c 4.891,-18.776 20.711,-27.5294 38.511,-24.272 0.984,0.1906 3.048,0.876 5.363,2.0413 z"
       fill="#566576"
       id="path27"
       style="stroke:none;stroke-width:5.104;stroke-dasharray:none;stroke-opacity:1;paint-order:fill markers stroke" /><path
       d="m 258.068,262.222 c 0.404,1.407 0.591,2.719 0.586,3.935 -1.432,-4.053 -12.42,-9.108 -26.338,-11.893 -15.455,-3.095 -28.667,-2.204 -29.497,1.991 l -0.189,-0.044 c 0.238,-1.107 0.678,-2.184 1.294,-3.203 2.862,-3.348 5.288,-6.34 7.319,-8.965 4.006,-1.056 10.909,-1.016 18.759,0.298 0.942,0.152 1.899,0.332 2.87,0.523 10.843,2.179 20.501,6.272 23.208,9.673 0.592,2.495 1.258,5.104 1.988,7.685 z"
       fill="#080604"
       id="path28"
       style="stroke:none;stroke-width:5.104;stroke-dasharray:none;stroke-opacity:1;paint-order:fill markers stroke" /><path
       d="m 258.654,266.157 c 0.009,0.734 -0.062,1.444 -0.215,2.107 -2.295,3.492 -14.762,4.065 -29.164,1.185 -15.455,-3.094 -27.3,-9.001 -26.456,-13.194 0.83,-4.195 14.042,-5.086 29.497,-1.991 13.918,2.785 24.906,7.84 26.338,11.893 z"
       fill="#ffffff"
       id="path29"
       style="stroke:none;stroke-width:5.104;stroke-dasharray:none;stroke-opacity:1;paint-order:fill markers stroke" /><path
       d="m 254.548,247.432 c 0.443,2.181 0.951,4.585 1.532,7.105 -2.707,-3.401 -12.365,-7.494 -23.208,-9.673 -0.971,-0.191 -1.928,-0.371 -2.87,-0.523 l 0.062,-0.364 c 0.066,-0.002 0.147,0.007 0.227,0.015 4.964,0.219 14.184,1.704 24.257,3.44 z"
       fill="#080604"
       id="path30"
       style="stroke:none;stroke-width:5.104;stroke-dasharray:none;stroke-opacity:1;paint-order:fill markers stroke" /><path
       d="m 233.915,164.177 0.136,0.314 c -0.734,19.126 -1.586,39.889 -2.176,55.765 -10.483,-0.58 -19.749,1.513 -23.707,2.995 -0.121,-1.103 0.017,-1.803 0.017,-1.803 l 7.651,-39.555 c 4.719,-4.909 7.862,-9.313 9.266,-10.852 1.164,-1.286 1.888,-2.552 2.189,-3.994 l 0.121,0.02 c 2.297,-1.063 4.464,-2.027 6.503,-2.89 z"
       fill="#566576"
       id="path31"
       style="stroke:none;stroke-width:5.104;stroke-dasharray:none;stroke-opacity:1;paint-order:fill markers stroke" /><path
       d="m 231.275,229.579 c -4.847,-0.291 -8.842,0.177 -10.937,1.257 l 0.074,0.129 c 0,0 -0.454,0.798 -1.457,2.37 l -0.082,-0.05 c -8.593,-2.825 -10.389,-7.488 -10.705,-10.034 3.958,-1.482 13.224,-3.575 23.707,-2.995 -0.105,3.223 -0.22,6.26 -0.307,9.028 l -0.025,0.308 c -0.094,-0.009 -0.187,-0.004 -0.268,-0.013 z"
       fill="#aab0c2"
       id="path32"
       style="stroke:none;stroke-width:5.104;stroke-dasharray:none;stroke-opacity:1;paint-order:fill markers stroke" /><path
       d="m 231.275,229.579 c -0.046,2.272 -0.226,4.524 -0.402,6.588 -7.497,-0.931 -13.433,-0.312 -14.709,1.661 l -0.18,-0.125 c 1.284,-1.814 2.265,-3.278 2.971,-4.368 1.003,-1.572 1.457,-2.37 1.457,-2.37 l -0.074,-0.129 c 2.095,-1.08 6.09,-1.548 10.937,-1.257 z"
       fill="#080604"
       id="path33"
       style="stroke:none;stroke-width:5.104;stroke-dasharray:none;stroke-opacity:1;paint-order:fill markers stroke" /><path
       d="m 216.164,237.828 c 1.276,-1.973 7.212,-2.592 14.709,-1.661 -0.262,3.03 -0.57,5.662 -0.56,7.45 l -0.022,0.375 c -0.08,-0.008 -0.161,-0.017 -0.227,-0.015 l -0.062,0.364 c -7.85,-1.314 -14.753,-1.354 -18.759,-0.298 1.906,-2.446 3.469,-4.567 4.741,-6.34 z"
       fill="#080604"
       id="path34"
       style="stroke:none;stroke-width:5.104;stroke-dasharray:none;stroke-opacity:1;paint-order:fill markers stroke" /><path
       d="m 257.583,272.372 c -0.923,4.28 -14.585,5.952 -29.806,2.672 -15.22,-3.28 -26.811,-9.408 -25.888,-13.689 0.922,-4.28 14.008,-5.092 29.229,-1.812 15.22,3.279 27.388,8.548 26.465,12.829 z"
       fill="#fcd006"
       id="path35"
       style="stroke:none;stroke-width:5.104;stroke-dasharray:none;stroke-opacity:1;paint-order:fill markers stroke" /><path
       d="m 202.186,261.083 c 1.007,-4.777 11.027,-5.218 14.999,-5.363 11.059,-0.029 22.095,2.237 32.066,7.112 2.478,1.265 4.901,2.733 6.975,4.78 1.01,1.118 2.08,2.415 2.016,4.063 -0.094,1.677 -1.642,2.555 -3.038,2.9 1.132,-0.702 2.194,-1.818 1.928,-2.87 -1.556,-7.417 -51.714,-18.173 -54.946,-10.622 z"
       fill="#080604"
       id="path36"
       style="stroke:none;stroke-width:5.104;stroke-dasharray:none;stroke-opacity:1;paint-order:fill markers stroke" /><path
       d="m 292.098,202.8 c -0.191,2.516 -1.614,4.459 -3.179,4.34 -1.565,-0.117 -2.68,-2.253 -2.489,-4.768 0.19,-2.516 1.613,-4.459 3.178,-4.34 1.566,0.117 2.68,2.253 2.49,4.768 z"
       fill="#e88a0f"
       id="path37"
       style="stroke:none;stroke-width:5.104;stroke-dasharray:none;stroke-opacity:1;paint-order:fill markers stroke" /><path
       d="m 291.391,89.844 c -0.191,2.5147 -1.613,4.4587 -3.179,4.34 -1.564,-0.1187 -2.678,-2.2533 -2.489,-4.7693 0.191,-2.5147 1.613,-4.4587 3.179,-4.3401 1.565,0.1187 2.68,2.2534 2.489,4.7694 z"
       fill="#e88a0f"
       id="path38"
       style="stroke:none;stroke-width:5.104;stroke-dasharray:none;stroke-opacity:1;paint-order:fill markers stroke" /><path
       d="m 244.87,120.7053 c -0.19,2.5147 -1.613,4.4574 -3.178,4.34 -1.565,-0.1186 -2.68,-2.2546 -2.49,-4.7693 0.19,-2.516 1.613,-4.4587 3.179,-4.34 1.565,0.1187 2.679,2.2533 2.489,4.7693 z"
       fill="#e88a0f"
       id="path39"
       style="stroke:none;stroke-width:5.104;stroke-dasharray:none;stroke-opacity:1;paint-order:fill markers stroke" /><path
       d="m 241.002,229.323 c -0.19,2.516 -1.613,4.458 -3.178,4.34 -1.565,-0.118 -2.68,-2.254 -2.489,-4.768 0.19,-2.516 1.613,-4.459 3.178,-4.34 1.565,0.117 2.679,2.253 2.489,4.768 z"
       fill="#e88a0f"
       id="path40"
       style="stroke:none;stroke-width:5.104;stroke-dasharray:none;stroke-opacity:1;paint-order:fill markers stroke" /><path
       d="m 266.363,286.663 c 0,0 -7.473,0.818 -7.693,5.249 -0.219,4.432 13.518,13.908 13.518,13.908 l 16.607,22.593 1.896,2.556 11.068,0.329 2.665,-8.533 z"
       fill="#ffffff"
       id="path41"
       style="stroke:none;stroke-width:5.104;stroke-dasharray:none;stroke-opacity:1;paint-order:fill markers stroke" /><path
       d="m 261.28,288.465 c -0.716,1.159 -1.72,1.876 -0.968,3.308 1.143,2.47 3.34,4.712 5.324,6.668 1.067,1.018 2.159,2.053 3.264,2.995 l -0.17,-0.124 c 2.745,1.727 5.297,3.868 7.006,6.66 3.846,5.88 7.992,11.646 12.328,17.179 1.156,1.317 2.351,3.192 3.799,3.986 1.501,0.751 3.519,1.122 5.451,1.347 1.968,0.205 3.945,0.279 5.99,0.975 l 0.019,0.316 c -2.009,0.886 -4.099,0.919 -6.177,0.812 -2.451,-0.17 -5.008,-0.302 -7.202,-1.69 -1.581,-1.124 -2.713,-2.656 -3.929,-4.097 -4.451,-5.628 -8.623,-11.409 -12.547,-17.42 -1.518,-2.453 -3.824,-4.357 -6.2,-5.947 -2.334,-2.093 -4.468,-4.306 -6.398,-6.815 -2.059,-2.655 -4.463,-6.779 0.17,-8.457 z"
       fill="#080604"
       id="path42"
       style="stroke:none;stroke-width:5.104;stroke-dasharray:none;stroke-opacity:1;paint-order:fill markers stroke" /><path
       d="m 302.456,295.661 c -4.682,-4.984 -7.585,1.556 -18.058,-3.097 -10.623,-4.699 -13.678,-9.165 -13.678,-9.165 l 19.272,-30.139 1.287,-2.013 0.011,-0.067 c 3.717,0.4 7.285,0.193 9.846,-0.629 -3.95,6.113 -6.868,10.759 -7.238,11.35 -0.854,0.031 -1.971,0.367 -3.336,1.37 -3.114,2.32 -3.939,3.976 -4.104,4.398 -0.024,0.068 -0.035,0.108 -0.035,0.108 l 0.425,3.004 24.252,10.402 -8.46,14.682 c -0.07,-0.076 -0.128,-0.14 -0.184,-0.204 z"
       fill="#778292"
       id="path43"
       style="stroke:none;stroke-width:5.104;stroke-dasharray:none;stroke-opacity:1;paint-order:fill markers stroke" /><path
       d="m 305.031,304.129 c 3.504,12.081 -2.097,23.068 -2.097,23.068 0,0 -7.474,0.336 -10.37,-2.054 -2.898,-2.406 -13.208,-16.826 -15.172,-20.038 -1.964,-3.212 -5.766,-5.57 -5.766,-5.57 0,0 -10.356,-8.946 -7.964,-11.83 2.404,-2.897 7.058,-4.306 7.058,-4.306 0,0 3.055,4.466 13.678,9.165 10.473,4.653 13.376,-1.887 18.058,3.097 0.456,1.379 1.251,3.903 2.575,8.468 z"
       fill="#080604"
       id="path44"
       style="stroke:none;stroke-width:5.104;stroke-dasharray:none;stroke-opacity:1;paint-order:fill markers stroke" /><path
       d="m 338.856,202.316 c 1.963,0.021 4.391,0.247 6.618,0.989 -4.378,0.554 -7.643,4.643 -7.403,9.424 0.104,2.078 0.853,3.948 2.035,5.411 -0.14,-0.113 -0.322,-0.264 -0.57,-0.439 -1.248,-0.925 -3.882,-2.608 -6.96,-3.014 -0.39,-9.084 2.07,-11.664 4.054,-12.312 0.625,-0.031 1.385,-0.07 2.226,-0.059 z"
       fill="#080604"
       id="path45"
       style="stroke:none;stroke-width:5.104;stroke-dasharray:none;stroke-opacity:1;paint-order:fill markers stroke" /><path
       d="m 342.343,201.196 c 0.264,-0.043 0.547,-0.072 0.831,-0.087 6.24,-0.313 11.522,4.002 11.805,9.635 0.012,0.225 0.023,0.435 -10e-4,0.661 -0.078,4.134 -2.9,7.746 -6.982,9.287 -1.166,0.464 -2.45,0.74 -3.798,0.807 -3.652,0.184 -6.975,-1.211 -9.135,-3.536 0,0 -0.036,0.002 -0.019,-0.014 -1.557,-1.634 -2.533,-3.733 -2.652,-6.069 -0.269,-5.379 4.119,-10.015 9.951,-10.684 z"
       fill="#080604"
       id="path46"
       style="stroke:none;stroke-width:5.104;stroke-dasharray:none;stroke-opacity:1;paint-order:fill markers stroke" /><path
       d="m 310.159,212.529 6.66,-2.697 18.031,-7.288 c 0,0 0.688,-0.1 1.78,-0.169 -1.984,0.648 -4.444,3.228 -4.054,12.312 -2.217,-0.288 -4.681,0.102 -6.99,1.954 -1.914,1.524 -5.264,5.778 -9.082,11.096 l -0.137,-0.06 -17.989,8.367 -0.204,-18.667 z"
       fill="#778292"
       id="path47"
       style="stroke:none;stroke-width:5.104;stroke-dasharray:none;stroke-opacity:1;paint-order:fill markers stroke" /><path
       d="m 316.367,227.677 0.137,0.06 c -2.02,2.839 -4.186,5.964 -6.348,9.157 l -0.014,-0.013 -11.756,-0.69 -0.008,-0.147 z"
       fill="#080604"
       id="path48"
       style="stroke:none;stroke-width:5.104;stroke-dasharray:none;stroke-opacity:1;paint-order:fill markers stroke" /><path
       d="m 298.174,217.377 0.204,18.667 0.008,0.147 11.756,0.69 0.014,0.013 c -1.554,2.294 -3.106,4.616 -4.594,6.879 -3.683,-1.016 -8.354,-1.516 -13.12,-2.597 -0.296,-0.052 -0.58,-0.119 -0.878,-0.196 l 0.012,-0.028 0.072,-28.827 3.542,0.063 c 3.126,0.043 10.864,0.201 14.969,0.341 z"
       fill="#566576"
       id="path49"
       style="stroke:none;stroke-width:5.104;stroke-dasharray:none;stroke-opacity:1;paint-order:fill markers stroke" /><path
       d="m 305.562,243.773 c -1.563,2.362 -3.05,4.666 -4.426,6.778 -2.561,0.822 -6.129,1.029 -9.846,0.629 -4.966,-0.512 -10.239,-2.089 -13.824,-4.645 l 0.061,-0.098 14.915,-5.248 v -0.013 c 4.766,1.081 9.437,1.581 13.12,2.597 z"
       fill="#080604"
       id="path50"
       style="stroke:none;stroke-width:5.104;stroke-dasharray:none;stroke-opacity:1;paint-order:fill markers stroke" /><path
       d="m 291.564,240.98 c 0.298,0.077 0.582,0.144 0.878,0.196 v 0.013 l -14.915,5.248 -0.061,0.098 c -1.704,-1.21 -3.016,-2.625 -3.752,-4.258 -3.307,-7.35 -3.318,-13.944 -0.822,-18.729 0.89,-1.687 2.071,-3.161 3.547,-4.344 l 15.219,-7.427 -0.01,0.348 -0.072,28.827 z"
       fill="#080604"
       id="path51"
       style="stroke:none;stroke-width:5.104;stroke-dasharray:none;stroke-opacity:1;paint-order:fill markers stroke" /><path
       d="m 260.762,119.7533 c 0.013,-10e-4 0.04,0.012 0.053,0.0107 7.893,0.8707 14.528,11.5173 15.165,24.208 0.646,12.839 -8.362,24.839 -16.526,25.249 0,0 -8.123,2.011 -14.45,-1.156 l 0.013,-0.014 c 2.041,0.752 4.132,0.926 6.163,0.438 8.086,-1.969 12.115,-13.96 9,-26.78 -2.997,-12.3703 -12.653,-21.4583 -20.592,-20.3103 l -1.466,0.048 c 3.164,-1.7854 14.299,-3.4774 22.64,-1.6934 z"
       fill="#566576"
       id="path52"
       style="stroke:none;stroke-width:5.104;stroke-dasharray:none;stroke-opacity:1;paint-order:fill markers stroke" /><path
       d="m 260.18,141.709 c 3.115,12.82 -0.914,24.811 -9,26.78 -2.031,0.488 -4.122,0.314 -6.163,-0.438 l -0.001,-0.014 c -1.332,-0.48 -2.637,-1.214 -3.9,-2.166 l -3.592,-3.211 c 1.949,-0.805 3.756,-1.497 5.381,-2.1 l 2.383,1.203 c 1.084,0.305 2.182,0.357 3.237,0.104 2.189,-0.538 3.89,-2.278 4.979,-4.79 1.57,-3.562 1.887,-8.665 0.59,-14.006 -0.691,-2.863 -1.851,-5.488 -3.27,-7.699 -3.099,-4.8107 -7.448,-7.676 -11.075,-6.8 -3.483,0.8427 -5.413,4.932 -5.694,10.232 -1.362,0.536 -2.827,1.131 -4.369,1.783 -0.316,-7.3403 1.459,-13.731 5.18,-16.9883 1.112,-0.9907 2.399,-1.684 3.863,-2.0374 0.276,-0.068 0.568,-0.1226 0.859,-0.1626 7.939,-1.148 17.595,7.94 20.592,20.3103 z"
       fill="#778292"
       id="path53"
       style="stroke:none;stroke-width:5.104;stroke-dasharray:none;stroke-opacity:1;paint-order:fill markers stroke" /><path
       d="m 254.094,143.071 c 1.297,5.341 0.98,10.444 -0.59,14.006 l -0.095,-0.034 c 0,0 -2.781,0.726 -7.751,2.498 l -0.032,-0.092 c 2.426,-1.937 2.698,-7.692 0.863,-13.113 -1.769,-5.184 -5.225,-8.868 -8.24,-9.091 4.643,-1.649 7.502,-2.393 7.502,-2.393 0,0 3.027,-0.872 4.969,0.592 l 0.104,-0.072 c 1.419,2.211 2.579,4.836 3.27,7.699 z"
       fill="#aab0c2"
       id="path54"
       style="stroke:none;stroke-width:5.104;stroke-dasharray:none;stroke-opacity:1;paint-order:fill markers stroke" /><path
       d="m 253.409,157.043 0.095,0.034 c -1.089,2.512 -2.79,4.252 -4.979,4.79 -1.055,0.253 -2.153,0.201 -3.237,-0.104 l -2.383,-1.203 c 0.982,-0.383 1.9,-0.709 2.753,-1.019 4.97,-1.772 7.751,-2.498 7.751,-2.498 z"
       fill="#080604"
       id="path55"
       style="stroke:none;stroke-width:5.104;stroke-dasharray:none;stroke-opacity:1;paint-order:fill markers stroke" /><path
       d="m 238.249,137.245 c -1.273,0.451 -2.675,0.963 -4.194,1.559 0.281,-5.3 2.211,-9.3893 5.694,-10.232 3.627,-0.876 7.976,1.9893 11.075,6.8 l -0.104,0.072 c -1.942,-1.464 -4.969,-0.592 -4.969,-0.592 0,0 -2.859,0.744 -7.502,2.393 z"
       fill="#080604"
       id="path56"
       style="stroke:none;stroke-width:5.104;stroke-dasharray:none;stroke-opacity:1;paint-order:fill markers stroke" /><path
       d="m 229.686,140.587 c 1.542,-0.652 3.007,-1.247 4.369,-1.783 1.519,-0.596 2.921,-1.108 4.194,-1.559 3.015,0.223 6.471,3.907 8.24,9.091 1.835,5.421 1.563,11.176 -0.863,13.113 l 0.032,0.092 c -0.853,0.31 -1.771,0.636 -2.753,1.019 -1.625,0.603 -3.432,1.295 -5.381,2.1 -0.681,0.275 -1.387,0.564 -2.106,0.867 l -0.031,-0.079 c 1.394,-2.54 1.26,-7.072 -0.586,-11.664 -2.484,-6.124 -7.1,-10.044 -10.305,-8.735 l -0.059,-0.117 c 1.826,-0.852 3.576,-1.635 5.249,-2.345 z"
       fill="#aab0c2"
       id="path57"
       style="stroke:none;stroke-width:5.104;stroke-dasharray:none;stroke-opacity:1;paint-order:fill markers stroke" /><path
       d="m 222.182,144.02 c 0.769,-0.372 1.512,-0.729 2.255,-1.088 l 0.059,0.117 c 3.205,-1.309 7.821,2.611 10.305,8.735 1.846,4.592 1.98,9.124 0.586,11.664 l 0.031,0.079 c -0.483,0.212 -0.993,0.424 -1.503,0.65 -2.039,0.863 -4.206,1.827 -6.503,2.89 l -0.121,-0.02 c 0.468,-2.12 0.008,-4.634 -1.292,-8.172 -1.624,-4.418 -4.933,-9.164 -10.698,-11.251 2.35,-1.32 4.666,-2.517 6.881,-3.604 z"
       fill="#aab0c2"
       id="path58"
       style="stroke:none;stroke-width:5.104;stroke-dasharray:none;stroke-opacity:1;paint-order:fill markers stroke" /><path
       d="m 215.301,147.624 c 5.765,2.087 9.074,6.833 10.698,11.251 1.3,3.538 3.018,7.785 2.551,9.905 -0.301,1.444 -1.025,2.708 -2.189,3.995 -1.405,1.538 -5.806,4.209 -10.525,9.118 -4.637,3.34 -8.62,9.467 -16.193,13.299 l -1.132,-0.212 c 1.071,-1.776 1.69,-3.824 1.9,-6.011 0.427,-0.274 0.838,-0.601 1.207,-0.954 4.535,-4.34 3.912,-14.067 -1.95,-20.195 -4.735,-4.968 -11.478,-6.044 -16.286,-3.96 -0.659,-0.1 -1.248,-0.137 -1.716,-0.155 -0.816,-0.025 -1.293,0.039 -1.293,0.039 0,0 -3.221,1.257 -7.204,3.553 12.845,-18.534 35.16,-20.805 35.16,-20.805 2.641,-0.025 4.958,0.379 6.972,1.132 z"
       fill="#778292"
       id="path59"
       style="stroke:none;stroke-width:5.104;stroke-dasharray:none;stroke-opacity:1;paint-order:fill markers stroke" /><path
       d="m 201.528,167.255 c 5.862,6.126 6.484,15.854 1.95,20.194 -0.369,0.352 -0.78,0.68 -1.207,0.955 0.623,-6.199 -1.998,-13.463 -6.665,-18.381 -3.352,-4.799 -7.578,-6.282 -10.364,-6.728 4.808,-2.084 11.551,-1.008 16.286,3.96 z"
       fill="#080604"
       id="path60"
       style="stroke:none;stroke-width:5.104;stroke-dasharray:none;stroke-opacity:1;paint-order:fill markers stroke" /><path
       d="m 202.247,187.933 c -0.21,2.187 -0.828,4.235 -1.9,6.011 -0.704,1.143 -1.586,2.175 -2.677,3.044 -0.782,1.188 -0.766,1.24 -3.232,3.18 l -4.162,-5.251 c 8.034,-4.302 8.427,-15.069 1.852,-22.388 -8.582,-9.528 -10.888,7.288 -10.888,7.288 -0.053,0.018 -0.091,0.046 -0.143,0.075 l -4.405,-3.971 c 0.026,-0.001 0.039,-0.016 0.066,-0.03 0,0 -0.609,-10.248 6.744,-13.222 0.468,0.018 1.057,0.054 1.716,0.155 2.786,0.447 7.013,1.929 10.364,6.728 4.667,4.919 7.288,12.183 6.665,18.381 z"
       fill="#778292"
       id="path61"
       style="stroke:none;stroke-width:5.104;stroke-dasharray:none;stroke-opacity:1;paint-order:fill markers stroke" /><path
       d="m 180.638,199.98 9.625,-5.049 0.013,-0.014 4.162,5.251 c -0.064,0.056 -0.128,0.1 -0.192,0.156 -14.045,9.291 -19.621,10.879 -19.621,10.879 l -3.222,-4.604 z"
       fill="#566576"
       id="path62"
       style="stroke:none;stroke-width:5.104;stroke-dasharray:none;stroke-opacity:1;paint-order:fill markers stroke" /><path
       d="m 181.097,179.892 c 0.052,-0.029 0.09,-0.057 0.143,-0.075 0,0 2.306,-16.816 10.888,-7.288 6.575,7.319 6.182,18.086 -1.852,22.388 l -0.013,0.014 -9.625,5.049 c 2.892,-5.419 0.788,-11.68 -5.197,-16.8 l -0.043,-0.065 c 2.057,-1.304 4.029,-2.446 5.699,-3.223 z"
       fill="#080604"
       id="path63"
       style="stroke:none;stroke-width:5.104;stroke-dasharray:none;stroke-opacity:1;paint-order:fill markers stroke" /><path
       d="m 176.692,175.921 c -6.552,3.52 -15.302,11.37 -18.924,14.742 0.737,-7.646 3.62,-12.971 7.078,-16.683 2.977,-3.193 6.837,-5.817 10.159,-7.72 3.983,-2.296 7.204,-3.552 7.204,-3.552 0,0 0.477,-0.064 1.293,-0.039 -7.353,2.974 -6.744,13.222 -6.744,13.222 -0.027,0.014 -0.04,0.029 -0.066,0.03 z"
       fill="#aab0c2"
       id="path64"
       style="stroke:none;stroke-width:5.104;stroke-dasharray:none;stroke-opacity:1;paint-order:fill markers stroke" /><path
       d="m 176.692,175.921 4.405,3.971 c -1.67,0.777 -3.642,1.919 -5.699,3.223 -6.728,4.25 -14.228,10.154 -14.228,10.154 l -3.493,-1.773 c 0.025,-0.281 0.051,-0.564 0.091,-0.833 3.622,-3.372 12.372,-11.222 18.924,-14.742 z"
       fill="#566576"
       id="path65"
       style="stroke:none;stroke-width:5.104;stroke-dasharray:none;stroke-opacity:1;paint-order:fill markers stroke" /><path
       d="m 233.862,138.784 c 2.639,-1.267 5.548,0.784 7.259,2.716 4.089,4.315 7.203,15.977 1.035,19.641 -0.987,0.355 -1.911,0.514 -2.915,0.738 1.025,-0.707 2.351,-1.083 3.137,-2.051 3.828,-5.073 -1.256,-21.535 -8.516,-21.044 z"
       fill="#778292"
       id="path66"
       style="stroke:none;stroke-width:5.104;stroke-dasharray:none;stroke-opacity:1;paint-order:fill markers stroke" /><path
       d="m 221.531,144.403 c 2.352,-1.371 5.275,0.324 7.036,1.985 4.455,4.405 7.138,11.62 4.745,17.675 -0.537,1.182 -1.563,2.265 -2.805,2.525 1.034,-0.716 1.587,-1.763 1.819,-2.883 1.428,-5.618 -3.88,-19.914 -10.795,-19.302 z"
       fill="#778292"
       id="path67"
       style="stroke:none;stroke-width:5.104;stroke-dasharray:none;stroke-opacity:1;paint-order:fill markers stroke" /><path
       d="m 223.442,163.939 c 0.334,2.505 -0.66,4.706 -2.219,4.913 -1.56,0.208 -3.095,-1.656 -3.428,-4.163 -0.334,-2.505 0.66,-4.705 2.219,-4.913 1.56,-0.208 3.095,1.656 3.428,4.163 z"
       fill="#566576"
       id="path68"
       style="stroke:none;stroke-width:5.104;stroke-dasharray:none;stroke-opacity:1;paint-order:fill markers stroke" /><path
       d="m 213.875,268.505 -12.788,23.207 c -0.688,1.249 0.224,2.971 1.136,2.145 l 8.03,-7.269 c 0.857,-0.775 1.758,0.722 1.205,2.003 l -8.901,20.62 c -0.617,1.428 0.546,2.97 1.369,1.814 l 11.801,-16.56 c 0.705,-0.99 1.767,0.02 1.491,1.418 l -1.653,8.362 c -0.293,1.487 0.903,2.472 1.571,1.294 l 13.952,-23.798 -2.885,10.839 c 0.36,1.216 14.002,-16.441 16.316,-19.672 0.65,-0.908 -3.55,-6.263 -4.407,-6.219 l -25.535,1.287 c -0.268,0.013 -0.524,0.207 -0.702,0.529 z"
       fill="#fcd006"
       id="path69"
       style="stroke:none;stroke-width:5.104;stroke-dasharray:none;stroke-opacity:1;paint-order:fill markers stroke" /><path
       d="m 366.514,163.053 -0.02,0.135 c -5.614,3.592 -10.458,5.224 -10.458,5.224 -19.245,-0.167 -27.801,-21.124 -28.122,-21.935 l 5.658,1.036 -0.032,0.15 c 0,0 8.926,10.244 14.636,12.04 4.748,1.497 15.006,2.917 18.338,3.35 z"
       fill="#080604"
       id="path70"
       style="stroke:none;stroke-width:5.104;stroke-dasharray:none;stroke-opacity:1;paint-order:fill markers stroke" /><path
       d="m 383.922,96.732 c 9.938,3.7893 15.549,17.176 12.524,29.8933 -2.667,11.1897 -11.103,18.1457 -19.85,17.0947 2.511,-0.633 4.962,-4.817 4.962,-4.817 0.902,-1.368 1.608,-2.982 2.046,-4.788 1.791,-7.5763 -1.965,-15.7017 -8.392,-18.1497 -6.426,-2.4493 -13.097,1.7147 -14.888,9.2893 l -0.208,0.0347 c -0.72,-3.9546 -0.66,-8.2026 0.332,-12.3733 3.027,-12.732 13.536,-19.9733 23.474,-16.184 z"
       fill="#ffffff"
       id="path71"
       style="stroke:none;stroke-width:5.104;stroke-dasharray:none;stroke-opacity:1;paint-order:fill markers stroke" /><path
       d="m 375.183,115.9267 c 6.436,2.4506 10.197,10.588 8.404,18.1733 -0.439,1.809 -1.145,3.425 -2.049,4.796 0,0 -2.454,4.189 -4.97,4.824 -0.013,-0.001 -0.013,-0.001 -0.013,-0.001 -1.207,-0.144 -2.42,-0.444 -3.615,-0.898 -6.68,-2.558 -11.308,-9.149 -12.77,-17.2677 l 0.105,-0.324 c 1.793,-7.5866 8.473,-11.7546 14.908,-9.3026 z"
       fill="#080604"
       id="path72"
       style="stroke:none;stroke-width:5.104;stroke-dasharray:none;stroke-opacity:1;paint-order:fill markers stroke" /><path
       d="m 339.6,85.9213 c 9.824,4.1267 15.01,17.712 11.57,30.3534 -2.68,9.8386 -9.782,16.208 -17.435,16.5866 2.108,-1.7626 4.152,-5.1893 4.968,-8.212 2.067,-7.5613 -1.673,-15.908 -8.323,-18.6653 -6.396,-2.6413 -13.174,0.8387 -15.505,7.8187 -0.605,-4.012 -0.405,-8.288 0.724,-12.4707 3.425,-12.628 14.177,-19.536 24.001,-15.4107 z"
       fill="#ffffff"
       id="path73"
       style="stroke:none;stroke-width:5.104;stroke-dasharray:none;stroke-opacity:1;paint-order:fill markers stroke" /><mask
       id="mask1_1_2"
       maskUnits="userSpaceOnUse"
       x="341"
       y="50"
       width="34"
       height="49"><path
         d="m 361.656,51.9053 c -7.436,-3.0973 -15.392,0.0027 -20.366,7.068 4.765,-4.936 11.326,-6.828 17.525,-4.2546 9.571,3.9746 14.631,17.0346 11.293,29.18 -1.932,7.0213 -6.244,12.1946 -11.386,14.5413 6.546,-1.6387 12.285,-7.572 14.637,-16.1467 3.465,-12.6493 -1.779,-26.2506 -11.703,-30.388 z"
         fill="#ffffff"
         id="path74" /></mask><g
       mask="url(#mask1_1_2)"
       id="g75"
       style="stroke:none;stroke-width:5.104;stroke-dasharray:none;stroke-opacity:1;paint-order:fill markers stroke"
       transform="translate(-22,34)"><path
         d="m 361.656,51.9053 c -7.436,-3.0973 -15.392,0.0027 -20.366,7.068 4.765,-4.936 11.326,-6.828 17.525,-4.2546 9.571,3.9746 14.631,17.0346 11.293,29.18 -1.932,7.0213 -6.244,12.1946 -11.386,14.5413 6.546,-1.6387 12.285,-7.572 14.637,-16.1467 3.465,-12.6493 -1.779,-26.2506 -11.703,-30.388 z"
         fill="url(#paint0_linear_1_2)"
         id="path75"
         style="fill:url(#paint0_linear_1_2);stroke:none;stroke-width:5.104;stroke-dasharray:none;stroke-opacity:1;paint-order:fill markers stroke" /></g><mask
       id="mask2_1_2"
       maskUnits="userSpaceOnUse"
       x="386"
       y="61"
       width="34"
       height="49"><path
         d="m 406.21,62.556 c -7.524,-2.8453 -15.371,0.5173 -20.111,7.7387 4.6,-5.088 11.092,-7.1974 17.364,-4.8347 9.685,3.648 15.16,16.5213 12.217,28.7627 -1.704,7.0763 -5.842,12.3883 -10.902,14.9023 6.484,-1.856 12.025,-7.974 14.097,-16.6143 3.053,-12.7494 -2.621,-26.156 -12.665,-29.9547 z"
         fill="#ffffff"
         id="path76" /></mask><g
       mask="url(#mask2_1_2)"
       id="g77"
       style="stroke:none;stroke-width:5.104;stroke-dasharray:none;stroke-opacity:1;paint-order:fill markers stroke"
       transform="translate(-22,34)"><path
         d="m 406.21,62.556 c -7.524,-2.8453 -15.371,0.5173 -20.111,7.7387 4.6,-5.088 11.092,-7.1974 17.364,-4.8347 9.685,3.648 15.16,16.5213 12.217,28.7627 -1.704,7.0763 -5.842,12.3883 -10.902,14.9023 6.484,-1.856 12.025,-7.974 14.097,-16.6143 3.053,-12.7494 -2.621,-26.156 -12.665,-29.9547 z"
         fill="url(#paint1_linear_1_2)"
         id="path77"
         style="fill:url(#paint1_linear_1_2);stroke:none;stroke-width:5.104;stroke-dasharray:none;stroke-opacity:1;paint-order:fill markers stroke" /></g><path
       d="m 331.667,104.6053 c 7.183,2.9214 11.233,11.7347 9.015,19.7094 -0.875,3.188 -3.076,6.8 -5.348,8.6546 -2.346,0.1134 -4.746,-0.2813 -7.091,-1.252 -7.108,-2.9306 -11.972,-10.3173 -13.3,-18.8893 2.504,-7.36 9.815,-11.02 16.724,-8.2227 z"
       fill="#080604"
       id="path78"
       style="stroke:none;stroke-width:5.104;stroke-dasharray:none;stroke-opacity:1;paint-order:fill markers stroke" /><path
       d="m 372.566,155.125 v 0.014 c -1.25,3.16 -6.348,8.129 -6.348,8.129 0,0 -0.22,-0.029 -0.607,-0.089 -0.129,-0.022 -0.257,-0.04 -0.425,-0.059 -3.196,-0.44 -13.034,-1.881 -17.588,-3.388 -5.479,-1.808 -14.058,-12.069 -14.058,-12.069 l 0.031,-0.15 z"
       fill="#ffffff"
       id="path79"
       style="stroke:none;stroke-width:5.104;stroke-dasharray:none;stroke-opacity:1;paint-order:fill markers stroke" /><path
       d="m 320.904,147.061 c 4.476,-3.16 11.543,-5.062 16.632,-2.412 -5.589,1.092 -10.874,2.747 -16.632,2.412 z"
       fill="#95461d"
       id="path80"
       style="stroke:none;stroke-width:5.104;stroke-dasharray:none;stroke-opacity:1;paint-order:fill markers stroke" /><path
       d="m 344.155,174.147 c 4.44,2.118 7.903,3.085 12.62,3.68 -3.925,3.381 -11.099,1.302 -12.62,-3.68 z"
       fill="#95461d"
       id="path81"
       style="stroke:none;stroke-width:5.104;stroke-dasharray:none;stroke-opacity:1;paint-order:fill markers stroke" /><path
       d="m 315.886,130.5227 c 0,0 20.569,-2.2134 24.437,3.3813 l -16.511,3.752 z"
       fill="#fab10b"
       id="path82"
       style="stroke:none;stroke-width:5.104;stroke-dasharray:none;stroke-opacity:1;paint-order:fill markers stroke" /><path
       d="m 362.758,139.105 c 0,0 20.677,0.522 23.802,6.582 l -16.846,1.54 z"
       fill="#fab10b"
       id="path83"
       style="stroke:none;stroke-width:5.104;stroke-dasharray:none;stroke-opacity:1;paint-order:fill markers stroke" /><path
       d="m 362.091,162.761 c 0,0 5.049,0.408 7.301,-2.744 0,0 -4.545,9.086 -13.356,8.395 z"
       fill="#080604"
       id="path84"
       style="stroke:none;stroke-width:5.104;stroke-dasharray:none;stroke-opacity:1;paint-order:fill markers stroke" /><path
       d="m 343.24,294.152 2.855,-5.108 -15.255,-8.961 -44.382,-12.414 0.133,2.664 5.579,5.794 45.004,14.885 4.545,3.356 z"
       fill="#ffffff"
       id="path85"
       style="stroke:none;stroke-width:5.104;stroke-dasharray:none;stroke-opacity:1;paint-order:fill markers stroke" /><path
       d="m 346.38,244.979 -7.884,28.538 c -1.269,-1.618 -2.525,-3.237 -3.684,-4.781 -4.965,-6.625 -11.938,-2.977 -16.33,-1.916 7.121,-17.432 20.374,-48.283 20.374,-48.283 l 0.68,-0.836 c 0.248,0.175 0.43,0.326 0.57,0.439 -0.014,0.015 0.013,0.013 0.013,0.013 1.64,2.08 4.147,3.343 6.889,3.204 1.012,-0.05 1.975,-0.285 2.85,-0.69 1.242,0.805 1.922,4.79 1.922,4.79 z"
       fill="#aab0c2"
       id="path86"
       style="stroke:none;stroke-width:5.104;stroke-dasharray:none;stroke-opacity:1;paint-order:fill markers stroke" /><path
       d="m 293.898,261.901 c 1.452,-0.045 2.201,0.771 2.201,0.771 0,0 16.428,4.128 20.34,4.412 0.589,0.036 1.279,-0.066 2.043,-0.264 4.392,-1.061 11.365,-4.709 16.33,1.916 1.159,1.544 2.415,3.163 3.684,4.781 5.098,6.593 10.155,13.455 7.983,17.501 -1.025,1.922 -2.125,2.605 -2.984,2.794 8.861,-6.185 -51.196,-24.394 -57.037,-26.143 0.165,-0.422 0.99,-2.078 4.104,-4.398 1.365,-1.003 2.482,-1.339 3.336,-1.37 z"
       fill="#080604"
       id="path87"
       style="stroke:none;stroke-width:5.104;stroke-dasharray:none;stroke-opacity:1;paint-order:fill markers stroke" /><path
       d="m 311.275,284.647 -19.065,-7.72 -5.27,-5.436 c 0,0 -0.19,-0.481 -0.166,-0.55 5.841,1.75 65.174,19.539 56.314,25.726 -0.95,0.221 -1.624,-0.173 -1.624,-0.173 z"
       fill="#080604"
       id="path88"
       style="stroke:none;stroke-width:5.104;stroke-dasharray:none;stroke-opacity:1;paint-order:fill markers stroke" /><path
       d="m 305.562,243.773 c 1.488,-2.263 3.04,-4.585 4.594,-6.879 2.162,-3.193 4.328,-6.318 6.348,-9.157 3.818,-5.318 7.168,-9.572 9.082,-11.096 2.309,-1.852 4.773,-2.242 6.99,-1.954 3.078,0.406 5.712,2.089 6.96,3.014 l -0.68,0.836 c 0,0 -13.253,30.851 -20.374,48.283 -0.764,0.198 -1.454,0.3 -2.043,0.264 -3.912,-0.284 -20.34,-4.412 -20.34,-4.412 0,0 -0.749,-0.816 -2.201,-0.771 0.37,-0.591 3.288,-5.237 7.238,-11.35 1.376,-2.112 2.863,-4.416 4.426,-6.778 z"
       fill="#778292"
       id="path89"
       style="stroke:none;stroke-width:5.104;stroke-dasharray:none;stroke-opacity:1;paint-order:fill markers stroke" /><path
       d="m 310.632,257.873 c -0.792,2.395 -2.641,3.938 -4.132,3.444 -1.49,-0.492 -2.056,-2.833 -1.265,-5.228 0.792,-2.396 2.643,-3.937 4.132,-3.445 1.491,0.493 2.057,2.833 1.265,5.229 z"
       fill="#aab0c2"
       id="path90"
       style="stroke:none;stroke-width:5.104;stroke-dasharray:none;stroke-opacity:1;paint-order:fill markers stroke" /><path
       d="m 323.323,265.241 c 0,0 16.083,-10.61 15.264,8.39 0,0 -2.519,-3.907 -5.761,-6.537 -2.426,-1.966 -2.891,-2.083 -9.503,-1.853 z"
       fill="#566576"
       id="path91"
       style="stroke:none;stroke-width:5.104;stroke-dasharray:none;stroke-opacity:1;paint-order:fill markers stroke" /></g></svg>
